<?xml version="1.0" encoding="UTF-8"?>
<svg width="31px" height="31px" viewBox="0 0 31 31" version="1.1" xmlns="http://www.w3.org/2000/svg" xmlns:xlink="http://www.w3.org/1999/xlink">
    <!-- Generator: Sketch 58 (84663) - https://sketch.com -->
    <title>icons8-unchecked_circle copy 4</title>
    <desc>Created with Sketch.</desc>
    <g id="Page-1" stroke="none" stroke-width="1" fill="none" fill-rule="evenodd">
        <g id="1920-2" transform="translate(-1298.000000, -675.000000)">
            <g id="Group-8" transform="translate(1044.000000, 311.000000)">
                <g id="icons8-unchecked_circle-copy-4" transform="translate(254.000000, 364.000000)">
                    <path d="M15.5,0 C6.95245178,0 0,6.95245178 0,15.5 C0,24.0475488 6.95245178,31 15.5,31 C24.0475488,31 31,24.0475488 31,15.5 C31,6.95245178 24.0475488,0 15.5,0 Z M15.5,1.06896552 C23.4566946,1.06896552 29.9310345,7.54330536 29.9310345,15.5 C29.9310345,23.4566946 23.4566946,29.9310345 15.5,29.9310345 C7.54330536,29.9310345 1.06896552,23.4566946 1.06896552,15.5 C1.06896552,7.54330536 7.54330536,1.06896552 15.5,1.06896552 Z" id="Shape" fill="#000000" fill-rule="nonzero"/>
                    <circle id="Oval" stroke="#000000" fill="#BAF1FF" cx="15.5" cy="15.5" r="9"/>
                </g>
            </g>
        </g>
    </g>
</svg>